<?xml version="1.0" encoding="UTF-8"?>
<svg xmlns="http://www.w3.org/2000/svg" version="1.1" viewBox="0 0 354.33 354.33">
  <defs>
    <style>
      .cls-1 {
        stroke-width: 2.04px;
      }

      .cls-1, .cls-2 {
        fill-rule: evenodd;
      }

      .cls-1, .cls-3, .cls-4 {
        stroke-miterlimit: 2.41;
      }

      .cls-1, .cls-3, .cls-4, .cls-5, .cls-6 {
        stroke: #222221;
      }

      .cls-1, .cls-3, .cls-5, .cls-6 {
        fill: none;
      }

      .cls-2 {
        fill: #222221;
      }

      .cls-3 {
        stroke-width: 1.57px;
      }

      .cls-4 {
        fill: #fff;
        stroke-width: 2.97px;
      }

      .cls-5 {
        stroke-width: 2.21px;
      }

      .cls-5, .cls-6 {
        stroke-linecap: round;
        stroke-linejoin: round;
      }

      .cls-6 {
        stroke-width: 2.06px;
      }
    </style>
  </defs>
  <!-- Generator: Adobe Illustrator 28.6.0, SVG Export Plug-In . SVG Version: 1.2.0 Build 709)  -->
  <g>
    <g id="Page_1">
      <circle id="Bela_podlaga" class="cls-4" cx="177.16" cy="177.16" r="174.08" transform="translate(-73.38 177.16) rotate(-45)"/>
      <path class="cls-1" d="M323.93,179.89c0,80.77-66.68,146.66-148.33,146.66S27.26,260.66,27.26,179.89"/>
      <path class="cls-2" d="M223.93,88.46c8.2,2.43,16.63,4.1,24.71,6.87.45.15.19.67.26.97-1.31.11-2.51-.15-3.48-.79-6.78-1.31-12.28-2.98-18.83-4.7-1.05.45-.77.99-.92,2.25.21,1.33.24,3.12.38,4.85.2,2.53.32,5.17.31,7,0,1.03-.46.57-.76.63-.46-2.65-.63-5.54-.77-8.45-.1-2.06-.09-4.19-.64-6.03-.87-.91-.98-2.04-.26-2.6h0Z"/>
      <path class="cls-2" d="M247.89,99.07c-.56,4.76-.82,9.77-1.76,14.45-.11.11-.26.3-.45.26-5.54-1.2-10.9-2.66-16.25-4.01-1.09-.6-.86-1.61-1.24-2.51-.64-4.46-.9-9.47-.79-14,6.82,1.95,14.19,3.07,20.48,5.8h0Z"/>
      <path class="cls-2" d="M227.15,110.49c-.71-.79-2.28-.52-3.22-.19.37-.63,1.36-1.29,2.06-1.36.48-.04.99.72,1.16,1.54h0Z"/>
      <path class="cls-2" d="M223.32,113.59c.97,1.12,2.11,2.33,3.64,1.43,1.42,5.99,2.96,11.95,4.46,17.94.04,1.42.11,2.77.97,3.74-2.47-.15-1.72-3.18-2.75-5.19-.45-1.68-.53-3.21-1.34-4.95-.94-4.46-.67-9.67-5.61-12.33-.42-.68-.94-1.46-.26-2.25,2.32-3.11-.38.7.89,1.6h0Z"/>
      <path class="cls-2" d="M225.91,112.51c-.09.26-.33.53-.58.51-.15,0-.3-.29-.43-.25-.3-.82.79-.94,1.01-.26h0Z"/>
      <path class="cls-2" d="M244.41,119.47c1.27,6.74-.86,13.07-2.73,18.98-3.07-1.24-8.35-1.01-8.5-5.5-1.05-5.62-2.96-10.82-4.01-16.44,5.28.64,10.3,1.61,15.24,2.96h0Z"/>
      <path class="cls-2" d="M211.2,133.74c-6.55,5.47-10,12.81-11.23,20.71-1.31,1.61-1.35-1.42-2.77-1.54-6.67-.19-13.29.97-18.91,4.01h-1.05c.56-2.21,3-3.75,3.52-5.95,3.82-3.67,7.56-8.95,12.69-10.71.75.3.82-.64,1.5-1.05,5.17-2.55,10.67-4.04,16.25-5.47h0Z"/>
      <path class="cls-2" d="M232.65,138.67c.34.86-.52,1.34-1.28,1.06-.15-.34,0-1.19.21-1.37.21-.18.81.01,1.07.31h0Z"/>
      <path class="cls-2" d="M239.88,144c-.04,2.32-.75,4.46-1.24,6.7-1.2-2.36-1.83-5.28-1.98-7.75,1.05.3,2.28.3,3.22,1.05h0Z"/>
      <path class="cls-2" d="M177.24,153.17c-.34.34-.64.71-.97,1.01.34-.3.64-.67.97-1.01h0Z"/>
      <path class="cls-2" d="M241.68,163.43c.18.22.37.38.38.52,0,.27-.35.41-.47.22-.08-.12,0-.38.1-.74h0Z"/>
      <path class="cls-2" d="M239.88,164.41c.13.33-.11.42-.38.42-.12,0-.3-.02-.33-.16-.15-.41.56-.71.71-.26h0Z"/>
      <path class="cls-2" d="M238.64,170.21c1.72,5.43,2.96,11.08,4.53,16.62.11,1.31-1.09,1.87-2.02,2.25-2.77.52-5.47,1.05-8.24,1.5-.34-7.83,2.21-14.42,4.49-21.16.6-.26.93.32,1.24.79h0Z"/>
      <path class="cls-2" d="M158.33,177.7c-.26-.86-.41-1.72-1.24-2.32-1.69.22-1.05,2.21-1.5,3.29-.22-1.76-.79-4.31.45-5.77,2.02.6,1.76,3.07,2.28,4.79h0Z"/>
      <path class="cls-2" d="M144.36,186.12c-.6.37-2.36.11-2.25,1.5.11.64.79,1.01,1.24,1.46-1.05-.41-3.07-1.91-4.53-3.22,1.61-1.46,3.48.56,5.54.26h0Z"/>
      <path class="cls-2" d="M243.89,194.59c-.3,3.44-3.07,5.84-2.73,9.47-.6,2.17-1.42,4.27-1.72,6.51-2.17-.64-1.76-3.29-2.51-5.02-2.32-2.73-1.8-6.63-4.01-9.44,3.14-1.54,7.49-1.16,10.26-2.25.19.22.45.45.71.71h0Z"/>
      <line class="cls-5" x1="223.77" y1="89.56" x2="249.72" y2="96.2"/>
      <line class="cls-6" x1="235.93" y1="139.74" x2="242.82" y2="142.14"/>
      <line class="cls-6" x1="243.91" y1="190.98" x2="229.93" y2="193.81"/>
      <line class="cls-6" x1="249.44" y1="214.81" x2="228.88" y2="218.82"/>
      <line class="cls-6" x1="250.86" y1="236.53" x2="226.94" y2="241.21"/>
      <line class="cls-6" x1="250.86" y1="261.3" x2="226.94" y2="265.98"/>
      <line class="cls-3" x1="250.19" y1="101" x2="249.66" y2="108.53"/>
      <line class="cls-5" x1="229.54" y1="113.21" x2="247.47" y2="116.97"/>
      <path class="cls-2" d="M21.66,153.2c-1.66-.14-1.94.79-2.16,2.23l-1.01-.07.94-7.7,1.01.07c-.14,1.51-.5,2.3,1.51,2.81l10.3,1.22c7.13.86,6.05,13.18-1.22,13.39-4.9,0-2.23-6.26.58-2.74,2.16,2.88,7.2-7.2.29-7.99l-10.22-1.22h0ZM34.26,146.65l-12.82-9,.5-2.45,15.41-2.3c3.38-.58,3.02-1.73,3.38-2.52l1.08.22-1.73,7.42-1.01-.22c.58-3.53-1.08-1.94-5.47-1.66l-1.58,6.77c2.95,1.58,4.75,4.1,5.9.07l1.01.22-1.73,7.42-1.01-.22c.22-1.73-.29-2.66-1.94-3.74h0ZM24.18,137.65l6.77,4.61,1.3-5.76-8.06,1.15h0ZM40.31,126.2l-11.59-5.11c-1.94-.86-2.16.65-2.74,1.51l-1.01-.43,2.59-5.76,14.76.5-10.3-10.58,2.45-5.62.94.43c-.5,1.66-.5,2.3,1.01,3.02l11.02,4.82c1.37.65,2.3.07,2.95-1.44l.94.43-3.02,6.91-1.01-.36c.65-1.37.5-2.16-.86-2.74l-11.81-5.18,11.88,12.38-.5,1.15-17.35-1.01,12.38,5.47c1.8.58,2.09-.65,2.59-1.8l1.01.43-2.88,6.55-1.01-.43c.72-1.58,1.22-2.23-.43-3.17h0ZM49.81,103.02l-9.29-12.67,1.37-2.16,15.34,2.81c3.38.58,3.46-.65,4.03-1.22l.94.58-4.03,6.41-.86-.5c1.66-3.17-.36-2.23-4.68-3.38l-3.67,5.9c2.23,2.38,3.17,5.4,5.54,1.94l.86.58-3.96,6.41-.94-.5c.72-1.58.65-2.59-.65-4.18h0ZM43.19,91.21l4.97,6.55,3.1-5.04-8.06-1.51h0ZM52.83,77.31c-1.08-1.01-1.73-1.22-3.38.65l-.79-.65,7.2-8.28c5.4-6.26,11.95-.29,8.14,5.04l7.27.72c.58-.07,1.94.29,3.38-1.01l.79.65-2.95,3.38-10.3-1.37-2.59,3.1,4.18,3.53c1.22,1.15,2.16.79,3.38-.65l.79.65-5.26,6.12-.79-.72c1.37-1.87,1.15-2.3.22-3.17l-9.29-7.99h0ZM58.45,78.54c3.96-4.18,6.41-6.77,2.95-9.5-3.02-2.3-8.64,4.54-7.42,5.69l4.46,3.82h0ZM77.31,62.19c-6.26,3.46-9.86,4.39-11.66-.22-1.58-3.96,3.89-7.63,7.27-8.28l-.36-1.08.65-.58,4.46,2.52-.72,1.15c-4.18-2.23-11.09,2.09-9.07,5.4,2.88,4.54,11.95-8.21,16.56-.36,2.38,4.32-2.88,10.87-7.92,10.8l.79,1.3-.79.65-5.62-3.53.65-.79c1.22.36,1.94.58,3.89.79,3.24.58,8.06-2.88,7.42-6.19-.94-4.54-4.46-1.94-5.54-1.58h0ZM81.63,48.59c-1.08-1.3-2.23-.72-3.1-.22l-.58-.86,6.7-4.39.58.94c-1.22.79-2.02,1.51-1.66,2.52l3.74,5.69,2.23-8.57c.14-.86-.29-2.3-2.23-1.08l-.58-.86,6.41-4.18.58.94c-.86,1.01-1.3,1.51-2.02,3.53l-1.3,4.9,9.58,4.61c1.94.72,2.81.43,3.82-.22l.58.86-7.06,4.61-.58-.86c1.94-1.3,1.8-1.94,1.08-2.23l-8.28-4.18-1.22,4.32,2.52,3.89c.72,1.08,1.51,1.08,3.24-.07l.58.86-6.7,4.39-.58-.86c1.44-.94,1.8-1.94,1.22-2.81l-6.98-10.66h0ZM100.28,36.85c-.86-1.66-1.94-1.08-2.95-.79l-.5-.94,6.55-3.38.5.94c-.65.58-2.02.79-1.08,2.95l5.54,10.87c.72,1.3,2.09,1.3,2.95.65l.43.94-6.55,3.38-.43-.94c1.22-.43,1.87-1.44,1.15-2.74l-5.62-10.94h0ZM118.21,28.07c-.72-1.51-2.02-1.3-3.02-1.01l-.29-.94,7.56-2.66.36,1.01c-1.44.43-2.38,1.01-2.23,2.09l2.23,6.41,4.25-7.78c.36-.79.29-2.3-1.87-1.58l-.36-.94,7.2-2.52.36,1.01c-1.08.79-1.66,1.22-2.81,2.95l-2.52,4.46,8.21,6.77c1.73,1.15,2.59,1.08,3.82.65l.36,1.01-7.99,2.81-.36-1.01c2.23-.79,2.16-1.44,1.58-1.94l-7.06-6.05-2.16,3.96,1.51,4.39c.43,1.15,1.15,1.37,3.17.65l.29,1.01-7.56,2.66-.29-1.01c1.58-.58,2.16-1.44,1.8-2.45l-4.18-11.95h0ZM140.67,32.53l-2.16-10.8c-.22-1.22-.79-2.02-2.66-1.66l-.22-1.01,7.7-1.51.22,1.01c-1.66.58-2.52.5-2.16,2.38l2.45,12.46c.43,2.02,6.55,1.3,9.07-5.26h1.08l-1.08,6.26-13.54,2.66-.14-1.01c1.37-.5,2.02-.65,1.44-3.53h0ZM156.01,18.35c-.14-1.87-1.66-1.73-2.66-1.66l-.07-1.01,7.78-.72.07,1.01c-1.66.22-2.52.72-2.38,1.94l.94,10.51c.5,5.69,10.8,4.75,10.51-.94l-.94-10.51c-.14-1.51-1.66-1.58-2.88-1.44l-.07-1.08,6.7-.58.07,1.01c-1.22.14-2.52.29-2.38,1.94l1.01,10.94c.65,6.91-13.82,8.64-14.76.94l-.94-10.37h0ZM178.83,17.91c.14-2.09-.5-2.38-2.16-2.66v-1.01l8.28.43c5.47.22,7.27,1.58,8.28,3.53.58,1.3.22,4.46-3.82,5.11,6.48.5,6.62,10.08-1.58,9.86l-12.02-.58.07-1.08c1.51-.14,2.3.14,2.45-2.66l.5-10.94h0ZM181.35,22.31c5.69.43,9.5.43,9.29-3.38-.14-1.66-1.94-3.24-7.42-3.1-2.59-.14-1.51,4.54-1.87,6.48h0ZM181.28,23.53c.07,2.95-.72,7.56.94,7.92,4.82,1.22,8.86,0,8.86-3.82-.07-3.17-1.73-3.67-9.79-4.1h0ZM206.55,33.18l3.02-11.38c.79-2.88-.36-2.52-1.58-3.1l.29-1.01,5.69,1.51,4.9,16.13,2.95-11.02c.29-1.01-.14-1.94-2.16-2.52l.22-1.01,6.55,1.73-.29,1.01c-1.22-.29-2.38-.65-2.88,1.22l-3.96,14.9-2.23-.65-5.47-18-3.38,12.6c-.43,1.66.58,1.94,1.94,2.52l-.22,1.01-6.55-1.73.29-1.01c1.44.14,2.45.43,2.88-1.22h0ZM226.5,32.82c2.45-5.18,6.98-7.42,12.53-5.26,5.54,2.09,7.2,7.99,5.47,12.1-1.73,4.1-5.83,8.35-12.67,5.47-6.77-2.88-6.62-9.22-5.33-12.31h0ZM229.45,34.04c-1.66,4.32-1.08,7.99,2.95,9.72,4.1,1.73,7.7-1.37,9.14-5.33,1.44-3.96.14-8.42-3.1-9.58-3.17-1.08-6.55-.22-9,5.18h0ZM250.83,37.14c.36-1.8.07-2.16-1.51-3.17l.5-.86,7.06,4.25-.5.86c-2.09-1.01-2.45-1.22-2.95,1.22l-2.16,12.24,10.3-8.14c1.22-1.22.36-1.8-1.01-2.81l.5-.94,6.34,3.82-.5.86c-1.66-.94-2.09-1.01-3.17-.43l-13.68,10.58-1.66-1.01,2.45-16.49h0ZM263.87,53.05c3.82-4.25,8.86-4.97,13.54-1.37,4.68,3.6,4.46,9.79,1.58,13.18-2.81,3.38-7.99,6.26-13.61,1.51-5.69-4.68-3.67-10.73-1.51-13.32h0ZM266.31,55.07c-2.88,3.74-3.46,7.34,0,10.22,3.38,2.81,7.7.94,10.3-2.45,2.52-3.38,2.52-8.06-.14-10.01-2.74-2.02-6.26-2.16-10.15,2.23h0ZM283.45,79.69l10.08-7.7c1.73-1.22.5-2.16,0-3.17l.86-.58,3.82,5.04-7.63,12.67,14.26-3.96,3.74,4.9-.86.65c-1.22-1.22-1.73-1.58-3.1-.58l-9.58,7.27c-1.22.86-1.15,1.94-.14,3.31l-.86.58-4.61-6.05.86-.65c.86,1.22,1.58,1.44,2.81.58l10.22-7.78-16.56,4.32-.79-1.01,9.29-14.69-10.8,8.14c-1.37,1.37-.43,2.23.36,3.24l-.86.65-4.32-5.76.79-.58c1.08,1.3,1.37,2.09,3.02,1.15h0ZM308.43,94.52c1.58-1.08,1.94-1.8,1.22-3.53l.94-.5,7.27,13.54-3.46,4.32-.79-.58c3.67-5.76-1.3-12.24-2.95-11.38l-4.82,2.59c1.8,3.38,1.87,4.54,5.47,3.1l.36.72-7.06,3.82-.29-.58c2.66-2.16,1.8-3.82.36-6.48l-5.76,3.1c-1.87,1.01,2.52,9.22,8.93,9.14l.07.94-6.05.36-7.49-13.97.94-.5c.58,1.15,1.37,2.16,2.66,1.44l10.44-5.54h0ZM314.34,122.67c-1.08-7.06-.65-10.8,4.32-10.87,4.25.07,5.76,6.48,5.18,9.79l1.15.07.29.79-4.03,3.24-.79-1.01c3.6-3.17,2.02-11.09-1.8-10.37-5.26,1.01,3.38,14.04-5.54,15.48-4.9.72-9.14-6.55-7.27-11.23l-1.44.29-.36-1.01,5.26-3.89.58.86c-.79,1.01-1.22,1.58-2.16,3.31-1.66,2.81-.22,8.57,3.1,9.14,4.61.79,3.46-3.53,3.53-4.61h0ZM313.69,138.08l12.53-3.17c2.66-.65-1.08-5.83-4.46-6.26l.22-.94,5.11.29,3.82,15.12-4.32,2.66-.65-.72c2.74-2.95,3.53-8.35.94-7.49l-12.46,3.17c-1.44.36-1.87,1.37-1.22,3.17l-1.01.22-2.02-7.99,1.01-.29c.43,1.66.65,2.52,2.52,2.23h0ZM321.97,148.31c5.69-.36,9.86,2.59,10.73,8.35.79,5.83-3.6,10.15-7.99,10.66-4.39.43-10.15-1.08-10.94-8.42-.79-7.27,4.9-10.22,8.21-10.58h0ZM322.33,151.47c-4.61.72-7.56,2.88-7.06,7.27.43,4.39,4.9,6.05,9.07,5.4,4.18-.65,7.42-3.96,6.84-7.34-.58-3.31-2.95-5.76-8.86-5.33h0Z"/>
      <path class="cls-2" d="M89.7,178.4c-.07-2.23,0-7.2.07-10.51.14-1.51-.14-1.8-.72-2.09-.29-.22-1.08-.79-.14-1.51.79-.79,1.87-1.08,2.52-1.08,1.37,0,1.37.79,1.22,1.37-.29,1.66-.43,3.89-.43,5.4,0,2.88.58,6.62.58,8.57,0,.29,0,.58-.43.72-.36.14-1.37.14-1.87.14-.79,0-.79-.43-.79-1.01h0ZM96.61,168.97c0-2.3,1.08-5.62,4.54-5.62,3.1,0,4.61,3.74,4.46,6.91,0,2.59-.5,9.14-5.98,9.14-1.22,0-2.59-.14-2.16-1.3.14-.58.5-1.8.65-2.23.14-.43.29-.43.58-.14,1.44,1.37,3.82-.5,4.25-2.74.07-.72-.29-.72-.72-.43-.72.43-1.51.72-2.09.72-2.16,0-3.53-1.94-3.53-4.32h0ZM103.02,168.47c.14-1.51-.94-2.38-1.87-2.38-1.37,0-2.23.86-2.23,2.38s1.15,2.3,2.09,2.3c1.22,0,2.02-1.08,2.02-2.3h0ZM106.76,171.92c0-4.97,2.3-8.57,5.98-8.57.58,0,1.37.14,1.8.29.36.14.65.36.36,1.08-.14.29-.36,1.22-.5,1.51-.14.43-.58.43-1.08,0-1.15-.94-2.45.43-3.02,1.08-.72.72-1.37,3.1-.14,2.23.58-.29.94-.58,2.02-.58,2.52,0,3.6,2.66,3.6,4.97s-1.22,5.62-4.54,5.62-4.46-3.67-4.46-7.63h0ZM113.31,173.79c.07-3.17-3.96-3.02-3.96,0,0,3.46,4.03,3.46,3.96,0h0ZM116.99,178.62c0-4.39,2.02-5.9,3.82-7.56,1.08-1.08,2.16-1.8,2.16-3.17,0-.79-.22-1.94-1.51-1.94-1.37,0-2.16,1.8-2.52,2.66-.14.36-.29.5-.72-.14l-.65-1.37c-.29-.58-.29-.86-.14-1.15.65-1.51,2.45-2.74,4.03-2.74,1.37,0,4.1.94,4.1,4.1,0,1.94-.5,2.81-1.22,3.74-1.08,1.22-2.02,1.94-3.1,2.88-1.01.72-1.15,1.15-1.22,1.66,0,.72.65.29,1.3.29,1.01,0,1.66.29,2.23.29,1.22,0,1.22-1.51,1.08-1.94-.14-.79.14-.43.58.14.29.43.5,1.37.5,1.8,0,1.37-.94,3.24-2.59,3.24s-2.02-.43-3.1-.43c-.72,0-1.37.14-1.94.43-.43.14-1.08,0-1.08-.79h0Z"/>
      <path class="cls-2" d="M174.51,300.7h0c-26.14.26-49.43-3.18-70.58-9.29-25.76-7.41-37.03-81.18-37.03-110.23h0c0-29.06,11.27-102.82,37.03-110.24,21.16-6.1,44.45-9.51,70.58-9.25h0c26.14-.26,49.43,3.15,70.58,9.25,25.76,7.41,37.03,81.18,37.03,110.24h0c0,29.06-11.27,102.82-37.03,110.23-20.96,6.31-44.45,9.55-70.58,9.29h0ZM170.57,208.85c-.08,1.35-.9,2.55-2.06,3.22-1.42.22-3.78.82-4.98-.52-.19-1.91,2.02-1.24,3.03-1.72,2.21-.19.6-3.93,3.22-4.01.79.86.6,1.95.79,3.03h0ZM120.1,197.36c1.46,5.62,1.31,11.79,2.06,17.75.15.67-.26,1.12-.52,1.68-.64.26-.86-.45-1.27-.71-.19-6.14-1.54-11.87-1.76-18.01-.79-1.24-1.65.52-2.51.79-4.23,5.17-9.66,10.37-11.68,16.7-.37-.04-.56.49-.97.26-.49-.67-.23-1.65-.26-2.51,2.88-5.09,5.92-10.86,10.22-14.72-1.99-.52-3.86.49-5.77.75-4.79,1.61-9.47,3.59-13.74,6.48-.56,0-1.2.11-1.5-.49-.15-.45.3-.64.26-1.01,2.77-1.05,4.98-3.45,8.01-4.01,3.89-1.46,7.6-3.52,11.68-4.46,2.13-.67,3,2.47,4.53-.26,1.31,0,2.55.82,3.22,1.76h0ZM224.64,79.07c-.82,1.98-1.35,4.16-1.42,6.48.3.86,1.12.41,1.24-.22.19-2.17,1.35-4.04,2.25-6.03.41-.15.67.26.97.52-1.31,1.95-1.57,4.46-1.76,6.96.19.19.3.3.52.52,7.11,1.87,14.23,3.78,21.45,5.5.94-.75.6-1.98,1.27-2.77,3.15,1.09-1.12,4.01,1.68,5.47.34,1.35-.97,2.02-1.42,3.03.03,1.83.03,5.37-.52,6.96.3,3.89-1.69,7.79-.26,11.23.15,1.35-.94,2.4-1.98,3,.04,6.93-1.61,13.11-3.48,19.25.3,1.42,1.91,2.62.97,4.23-.67,1.24-2.7.52-2.73,2.21-.15,2.4-1.19,3.86-1.67,6.25-.1.72-.61,1.34-.62,2.02-.02.71.24.74.5,1.27,2.13-3.67,1.69-8.5,5.28-11.23.82-.64,1.54-1.72,1.24-3.03-.79-.86-.56-2.51-.26-3.48,1.72-5.92,2.1-12.43,3.56-18.46.49-.9,1.21-.55,1.77-1.9.08-2.02-1.58-3.05-1.06-5.33-.04-.11.19-1.02.15-1.06,1-3.81.41-7.67,1.35-11.67.75-.22,2.55-2.88,2.25-.52-.26.26-.52.52-.71.79-.49,4.75-1.2,9.77-1.27,14.45,1.27.56.79,1.87,1.27,2.73-.49,1.31-1.05,2.55-2.32,3.48-.82,6.81-3.14,13.07-3.74,20,.6.97,1.12,2.28.52,3.48-5.5,3.48-4.47,10-7.02,14.94-.52,3.15,3.91,3.03,3.28,6.25-.24,3.85.4,7.33,1.47,10.91,1.2,3.82,2.2,7.06,3.28,11.01,2.7-2.73,2.4-5.96,3.26-9.67.41-.22.64-1.01,1.27-.75,2.21,3.67.41,10.26,5.95,11.2,2.81,2.73-2.02,7.08,1.72,9.74-.97,3.45-.64,7.75,2.28,10,2.1,2.43.82,6.18,3.22,8.46.75,1.46.37,3.74,2.25,4.27,1.57,1.5,1.98,3.12,1.46,6.14-2.23,16.44-4.64,23.63-9.28,36.5-4.38,12.16-11.03,21.43-19.66,24.17-8.63,2.74-10.97,2.33-16.17,2.63-3.56.2-6.72-.93-8.77-5.26-.56-.9-1.61-2.28-2.77-1.5-1.95,2.21-1.12,5.65-2.47,8.2-.82.3-1.01-.45-1.27-.97.49-2.25-.97-4.68-.45-6.96-.38-2.73-.38-5.84,0-8.54-.64-1.61-1.72-3.48-1.24-5.2-1.2-1.5-1.12-3.52-2.77-4.79-1.24-3.22-1.31-6.93-4.27-9.47-.79-.56-1.76-.04-2.51.52-2.02,2.1-1.01,5.47-2.7,7.71-3.93,1.5-2.47,5.62-4.27,8.28.08,1.54.08,3.11-.97,4.19-1.24.75-4.42-.45-4.53,2.28.41.79-.71,1.31,0,1.98-.82-.3-.71.71-.71,1.24.26,2.81-.64,5.84.71,8.5-.15,1.24.49,2.81-.45,3.74-2.36-.75-8.16,2.06-6.78-2.96.67-1.87-.56-3.59-.45-5.54-1.27-3.74-2.7-7.15-5.77-9.7-2.55-.34-3.56,2.73-4.98,4.19-.97,3.74-3.11,7.08-2.96,11.23-1.2.75.3,2.43-1.24,3.03-1.57.04-3.14.04-4.27-1.01-3.33-4.57-.26-11.68-4.76-15.73.64-4.49-5.13-5.69-3.74-10.48-.67-.67-.86-2.02-2.02-2.02-1.76,1.35-2.4,4.01-3.74,6.03-4.68,2.4-.94,8.35-5.21,10.97-1.8,2.13-1.12,6.89-5.24,6.51-2.17-1.09-4.27-2.28-5.99-4.27-.79-.52-1.72.04-2.47.26-1.42,1.09-2.51,2.81-3.74,4.23-1.98-1.05-6.55.49-5.8-3.52-1.01-2.62-4.49-1.39-5.24-4.45-.37-2.1-2.25-3.48-2.25-5.77-1.65-2.1-.67-5.32-2.73-7.23-1.87-1.95-1.31-5.05-3.74-6.52.86-3.48-3.29-4.79-2.51-8.2-.3-.34-.3-.75-.71-1.01-.9-.15-1.68.41-1.98,1.27-2.51,4.08-4.91,8.87-3.56,13.97-.19,1.61-.15,3.82-2.21,4.23-2.09-3.71-2.72-4.94-4.01-8.5-4.91-12.58-7.3-26.25-9.74-39.92.82-1.35,1.84-2.88,3.29-3.75,6.03-3.48,15.39-5.09,21.94-1.54,1.8.64,2.73-.97,4.01-1.68,5.43-2.77,11.16.19,15.24,3.93,5.65-5.92,15.13-6.55,22.65-4.19,2.92,1.27,6.1,2.88,8.01,5.43.04,1.69-2.92,3.41-.71,4.53.67-2.13,1.69-4.01,2.7-5.95-.41-.52-.79.6-1.46.19-.94-.79-.52-1.54-.26-2.51.26-2.36.45-4.76.71-7.23,2.21,0,1.01,2.73,1.54,4.01-.07,1.69-.94,3.33-.26,5.02,3.67-3.71,9.02-6.25,14.98-4.75,1.39-2.02,1.8-4.42,3-6.48,2.88-3.71,6.78-5.84,10.93-6.78-.94-1.09-2.81-.79-4.01-.45-2.73,2.73-7.45,1.24-10.41,0,.08-.49-.19-1.01.22-1.27,3.07-.04,5.62,1.12,8.69,1.01,1.46-1.46.3-4.01,1.05-5.73.67-7.79,6.55-14.15,12.96-18.95-1.87-5.99-2.47-13.63,3.26-18.01-.11-.71,1.01-1.27.22-1.95-6.37.71-12.92,1.09-18.2,4.46,4.04,4.42,9.66,7.79,12.99,12.99-.15.64.3,1.42-.52,1.72-3.03-1.38-4.79-4.68-7.23-6.96-2.66-2.92-6.37-4.79-8.95-7.75.34-1.84,1.12-3.48,2.21-4.98-.04-.08-.15-.15-.26-.26-1.42,3.93-7.49.3-7.23,5.24-.15.26-.6.37-.45.79.97.11,1.76-2.17,3.22-1.05,2.51,2.36.52,5.84.71,8.76-2.06,3.93-2.36,8.87-6.7,11.72-.79,1.83-2.73,2.88-4.53,3.45-3.15.94-3.41-3.37-6.7-2.21-2.96.41-5.47,2.73-6.48,5.5-1.2,2.66,2.73,4.12.97,6.96-2.66,2.28-6.66,1.69-10,2.51-6.59.26-13.11.86-18.98-1.54-1.01-.75-1.24-2.32-.71-3.48.26-.3.67-.56.52-.97-.52-.52-1.2.04-1.76.26-1.69,1.35.41,4.91-2.77,4.98-2.66-.3-4.87.41-7.23,1.01-.3.15-.86.3-1.12.49-4.12,1.69-8.2,3.03-11.87,5.73-4.91,2.77-9.85,6.63-12.69,11.72-1.87,1.87-2.66,4.61-4.79,6.03-.45-3.86-.97-6.7-1.46-10.52-4.27-39.28,1.61-78.07,14.19-112.3,1.8-3.82,4.27-7.41,7.49-9.96,1.46-.37,2.06,1.27,3.03,1.95,1.35,3.41-.64,7.15.71,10.52.6,8.01.67,16.14,2.77,23.44,2.25-3.56,3.86-7.53,3.48-12.21.15-3.11,1.46-5.92,3.48-8.01.56-3.26.82-6.74,1.76-9.96.08-.49.67-.79,1.01-1.27,2.06.49,1.2,3.03,1.76,4.53-.22,1.35,1.39,2.25.26,3.48,1.57,5.88,3,11.65,3.48,18.01.71,3.89,2.58,7.3,2.25,11.68,1.91,2.25.71,5.88,2.47,8.28,2.28-.26,1.68-3.03,2.51-4.53.56-7.26,2.77-14,3.48-21.23.22-.22.67-.67,1.24-.45.49.22.64.97,1.27.71,0-3.48.79-6.59,2.21-9.44-1.09-3.45-.19-7.41,1.54-10.26.52-.56,1.27-1.09,2.02-.52.97,2.17,2.25,4.64,1.46,7.23,1.2,4.91-.67,10.15,3.52,13.74.15,2.4-.45,4.19.49,6.22.15,2.92-.49,6.14,1.5,8.28.67,7.04.56,14.45,1.99,21.23.26,1.91,1.38,3.52,2.28,5.24,2.96-3.37.71-8.87,4.19-12.02-1.01-5.09,3.97-7.75,2.51-12.92.15-3.93,6.18-4.68,4.72-9.29,1.2-3,.86-6.63,1.27-9.96.82-1.54,2.06-.11,2.47.71.22,3.15,1.57,5.88,1.8,8.99,2.06-.94,2.06-6.7,5.24-3.48,1.91,3.71,1.83,8.24,4.19,11.76,1.16,1.95-.3,4.91,1.24,6.7.15,4.91.6,9.62,1.5,14.27,8.69-9.74,20.22-14.83,31.98-18.24,2.25-.34,5.09-.71,6.7,1.24v.79c-7.15,5.39-13.67,12.73-14.19,21.94.34,3.93-9.29,2.21-3.75,7,1.76,3.59,2.4,7.71,3.97,11.46-1.31,5.8,4.57,9.47,1.76,14.94.71,2.28,1.57,4.34,1.98,6.74,2.43-5.54,4.27-11.27,6.22-16.89,1.42-2.32,1.27-5.17,3.03-7.3,2.13,2.1,1.98,5.5,3.03,8.28.67,1.05,1.01,2.21,1.95,3.18,3.86-3.56,2.88-9.62,3.74-14.68.67-.64,1.54-1.83,1.98-.52.94,3.97,0,8.44,1.66,12.07,1.21-3.54,2.58-6.35,3.32-9.79.79-2.02,1.46-4.16,2.51-6.03.73-.67.96-1.58,1.09-2.55.13-.97.17-2-.04-2.92-1.2-2.85-1.72-5.95-2.51-8.99-.6-1.83-1.2-4.31-3.52-4.72-1.27-1.72-2.88-3.89-1.46-5.99,1.35-1.76.64-3.59.19-5.5-.39-1.86-1.09-3.54-1.53-5.39-.61-2.54-1.18-5.11-1.63-7.69-1.46-2.58-4.67-3.21-4.82-6.36-.23-2.92,3.22-4.3,3.25-7.04.04-4.12-.77-7.86-.7-11.98-1.12-1.46-3.41-1.5-3.48-3.48-.45-1.87,1.01-2.96,1.95-4.27.6-2.43.86-4.98,1.8-7.23.45.07,1.09-.19,1.42.26h0Z"/>
      <path class="cls-2" d="M236.1,148.4c1.12,4.98,2.37,8.75,4.02,13.54-1.2-.15-2.11,1.2-2.45,2.02-.34,1.31.48,2.16,1.37,2.68.82,0,1.51.43,2.11-.17,1.27,7.49,4.34,13.98,5.98,21.28-.15.77-.42,1.27-.77,1.89-.1,1.03-.04.85.18,1.48,1.38.85,1.76,4.13,2.09,5.72,1.46,5.24,1.12,11.2,3,16.21.8.39.63,1.31.75,1.8-1.57,5.21.18,9.79.23,14.87.3,2.25.59,5.39,1,7.6-.15.15-.3.3-.45.45-.6,5.95.04,12.96-.52,18.27-.94,2.96,3.07,5.77-.52,7.94-.49,1.57-.34,2.96.15,4.53,1.49,1.16,1.33,3.38.87,4.24-.52,1.5-2.48,1.79-3.71,1.22-1.54-.64-1.61-2.54-1.05-3.97,1.87-1.72,1.46-4.31,1.5-6.74-.26-.26-.45-.52-.71-.75-2.79.14-18.61,2.34-21.13,3.37.03,1.81-.54,5.3,1.38,8.65.24.42.44.69,1.02.91.47.58.49,1.12.47,2-.78,2.33-1.5,2.71-3.15,2.81-1.39.03-2.25-.75-2.85-1.5-.6-.79-.6-2.13-.26-3.03,3.15-1.57,1.42-5.5,1.54-8.01-.67-.52-1.68-.79-1.98-1.72-.49-2.02,2.25-2.66,1.98-4.53.52-5.95-.9-11.12-.75-16.92-.3-1.01-1.12-.67-1.71-2.52.3-1.78.43-2.76,1.97-3.74-.56-6.03.94-14.5-1.48-18.3,0-2.36,2.02-3.35,1.48-6.15.64-5.88,1.34-11.06,2.69-16.68-.08-.7-.35-1.34-.51-1.87-.23-.73-.74-1.3-.21-2.27,1.12-.88,1.5-2.09,1.72-3.28.34-1.85.15-3.79.64-5.51.39-4.15,1.45-7.55,2.7-10.88.8-2.13,1.78-4.21,2.36-6.51,1.77,2.69-.54,5.92-1.28,8.53-2.04,6.33-2.5,10.86-3.1,16.48.15.45.49.82.97.97,3.48-.52,6.96-1.91,10.45-1.72v.75c-3.26.97-6.74,1.5-10.18,2.25-2.7,2.28-2.05,5.92-2.93,8.95-.41,4.57-.97,8.5-1.08,13.29.26.45.41,1.09.97,1.46.37.11.45.14,1.01,0,5.62-1.31,11.5-2.25,17.19-3.22,3.15-2.21.34-6.03.79-9.25-1.27-4.79-.45-10.82-3.66-14.56-.19-1.61,1.48-2.75.77-4.2-1.31-6.25-3.4-12.13-5.12-18.16-.38-.52-1.02-.44-1.64-.79-.9-.51-1.96-1.53-1.87-2.71-.3-2.7,2.21-3.93,1.3-6.72-1.8-4.83-2.55-10.11-4.27-14.98-.49-.41-.82-1.09-1.46-1.27.71.07,2.23-1.34,2.49.19.43,1.95,1.38,4.43,1.67,6.26h0ZM251.64,271.01c.26.79-.02,1.69-.97,1.72-.96.04-1.5-1.66-.43-2.47.64-.22,1.18.19,1.41.75h0ZM228.83,276.51c.35,1.8-.58,2.44-1.87,1.99-.69-.7-.74-1.36-.48-1.97.67-1.39,2.01-1.32,2.35-.01h0ZM250.66,237.76c.67,7.49-.22,15.31-.26,22.47-.26.26-.52.52-.79.79-6.93.94-13.63,2.17-20.71,2.77-.6-.26-.37-.9-.56-1.68-.56-5.92-.2-13.53-.94-20.41,7.9-1.61,15.02-2.89,23.26-3.94h0ZM249.57,216.76c-.11,6.4,1.28,11.98.83,18.5-2.02.9-4.23,1.39-6.52,1.54-5.02.97-10.18,2.02-15.24,3-.26-.26-.45-.52-.71-.75.11-6.07-.04-10.54-.68-15.97-.19-.71-.53-2.01-.16-2.84,3.4-.66,14.68-3.74,22.06-4.15.15.15.25.53.4.67h0Z"/>
    </g>
  </g>
</svg>